<?xml version="1.0" encoding="UTF-8" standalone="no"?>
<svg width="142px" height="26px" viewBox="0 0 142 26" version="1.1" xmlns="http://www.w3.org/2000/svg" xmlns:xlink="http://www.w3.org/1999/xlink">
    <!-- Generator: Sketch 3.8.3 (29802) - http://www.bohemiancoding.com/sketch -->
    <title>Alley logo horizontal Copy</title>
    <desc>Created with Sketch.</desc>
    <defs></defs>
    <g id="Page-1" stroke="none" stroke-width="1" fill="none" fill-rule="evenodd">
        <g id="Artboard-1-Copy-9" transform="translate(-40.000000, -509.000000)" fill="#FFFFFF">
            <g id="Group" transform="translate(40.000000, 502.000000)">
                <g id="Alley-logo-horizontal-Copy" transform="translate(0.000000, 7.000000)">
                    <path d="M8.09599438,14.7656067 L8.09599438,13.3842978 C5.06094382,13.8342303 3.73906742,14.4054213 3.73906742,15.6969831 C3.73906742,16.6885899 4.30985955,17.1999494 5.42152809,17.1999494 C7.55511798,17.1999494 8.09599438,16.1181966 8.09599438,14.7656067 M0.163140449,15.9379045 C0.163140449,13.0532303 2.53725281,11.4904326 8.09599438,10.7999775 L8.09599438,10.5590562 C8.09599438,9.53793258 7.67517978,9.14703371 5.99232022,9.14703371 C4.61021348,9.14703371 4.00910674,9.59776404 3.64932022,10.2587022 L0.283601124,9.11711798 C1.00437079,7.61494944 3.07812921,6.2328427 6.26275843,6.2328427 C10.1091236,6.2328427 11.5809775,7.58463483 11.5809775,10.4689101 L11.5809775,19.8441011 L8.09599438,19.8441011 L8.09599438,18.4316798 C7.22405056,19.4224888 6.23324157,19.9641629 4.22011236,19.9641629 C1.24529213,19.9641629 0.163140449,18.2817022 0.163140449,15.9379045" id="Fill-2"></path>
                    <polygon id="Fill-3" points="12.6854663 19.8441011 16.2609944 19.8441011 16.2609944 0.133623596 12.6854663 0.133623596"></polygon>
                    <polygon id="Fill-4" points="17.5314157 19.8441011 21.1069438 19.8441011 21.1069438 0.133623596 17.5314157 0.133623596"></polygon>
                    <path d="M25.5556124,11.640809 L30.4833315,11.640809 C30.4231011,10.0484944 29.9428539,9.20726404 28.1395337,9.20726404 C26.3066966,9.20726404 25.7055899,10.0484944 25.5556124,11.640809 M22.0096011,13.5031629 L22.0096011,12.7524775 C22.0096011,8.66638764 24.1132753,6.23244382 28.1993652,6.23244382 C32.1957079,6.23244382 33.9387978,8.39594944 33.9387978,12.2419157 L33.9387978,14.2247303 L25.5256966,14.2247303 C25.6457584,16.2075449 26.2169494,17.1696348 28.1395337,17.1696348 C29.9727697,17.1696348 30.3632697,16.6885899 30.5730787,15.6666685 L33.9387978,16.1780281 C33.4880674,17.9805506 32.0760449,19.9641629 28.1993652,19.9641629 C23.6928596,19.9641629 22.0096011,17.5298202 22.0096011,13.5031629" id="Fill-5"></path>
                    <path d="M34.4992191,22.1871011 L35.6715169,22.1871011 C37.0528258,22.1871011 37.2634326,21.7666854 37.713764,20.3841798 L37.9247697,19.7834719 L33.5080112,6.44265169 L37.2335169,6.44265169 L38.0145169,8.90691011 L39.8477528,15.0356461 L41.7105056,8.87659551 L42.4615899,6.44265169 L46.0068034,6.44265169 L40.7192978,22.2772472 C40.0579607,24.2604607 38.7963146,25.1918371 36.151764,25.1918371 L34.4992191,25.1918371 L34.4992191,22.1871011" id="Fill-6"></path>
                    <path d="M47.7303483,19.8441011 L49.5340674,19.8441011 L49.5340674,6.37524157 L47.7303483,6.37524157 L47.7303483,19.8441011 Z M47.6681236,3.94927528 L49.5962921,3.94927528 L49.5962921,2.17028652 L47.6681236,2.17028652 L47.6681236,3.94927528 Z" id="Fill-7"></path>
                    <path d="M51.0354382,6.37564045 L52.8387584,6.37564045 L52.8387584,7.96157303 C53.6169663,6.96677528 54.9232865,6.15785393 57.1318652,6.15785393 C60.2107921,6.15785393 61.1748764,7.86903371 61.1748764,10.8239101 L61.1748764,19.8441011 L59.3711573,19.8441011 L59.3711573,10.979073 C59.3711573,9.48607865 59.2471067,7.89974719 56.7585169,7.89974719 C53.8343539,7.89974719 52.8387584,9.48607865 52.8387584,12.6587416 L52.8387584,19.8441011 L51.0354382,19.8441011 L51.0354382,6.37564045" id="Fill-8"></path>
                    <path d="M61.3994438,6.37564045 L64.1991573,6.37564045 L64.1991573,2.27000562 L66.0032753,2.27000562 L66.0032753,6.37564045 L69.5488876,6.37564045 L69.5488876,8.11713483 L66.0032753,8.11713483 L66.0032753,15.3020955 C66.0032753,17.5421854 66.2828876,18.1329213 68.6167135,18.1329213 L69.5488876,18.1329213 L69.5488876,19.8441011 L68.2736798,19.8441011 C65.0387921,19.8441011 64.1991573,18.6925449 64.1991573,15.5194831 L64.1991573,8.11713483 L61.3994438,8.11713483 L61.3994438,6.37564045" id="Fill-9"></path>
                    <path d="M71.5157472,11.8809326 L78.4195,11.8809326 C78.3572753,9.26869101 77.674,7.86903371 75.1231854,7.86903371 C72.5420562,7.86903371 71.6705112,9.51758989 71.5157472,11.8809326 M69.7112303,13.4987753 L69.7112303,12.7209663 C69.7112303,8.8953427 71.0797753,6.15785393 75.1231854,6.15785393 C79.1981067,6.15785393 80.2551292,8.64644382 80.2551292,12.1920562 L80.2551292,13.5602022 L71.5157472,13.5602022 C71.5157472,16.2354663 72.4176067,18.2569719 75.1231854,18.2569719 C77.2687416,18.2569719 78.0780618,17.4488483 78.3895843,15.9861685 L80.1933034,16.4221404 C79.6643933,18.4440449 78.0780618,19.9677528 75.1231854,19.9677528 C71.048264,19.9677528 69.7112303,17.2318596 69.7112303,13.4987753" id="Fill-10"></path>
                    <path d="M81.4557472,6.37564045 L83.2590674,6.37564045 L83.2590674,8.21087079 C83.9750506,7.12273596 85.1565225,6.18936517 87.0543764,6.18936517 L87.0543764,7.89974719 C84.0679888,7.89974719 83.2590674,10.107927 83.2590674,13.2805899 L83.2590674,19.8441011 L81.4557472,19.8441011 L81.4557472,6.37564045" id="Fill-11"></path>
                    <path d="M95.394882,14.1832472 L95.394882,12.099118 C91.631882,12.4716685 88.9255056,13.467264 88.9255056,15.8932303 C88.9255056,17.4488483 89.7970506,18.2892809 91.5078315,18.2892809 C94.649382,18.2892809 95.394882,16.4221404 95.394882,14.1832472 M87.0918708,15.862118 C87.0918708,12.4098427 90.2027079,10.9786742 95.3960787,10.4816742 L95.3960787,10.2323764 C95.3960787,8.39754494 94.3402528,7.89974719 92.3171517,7.89974719 C90.9486067,7.89974719 89.7982472,8.33532022 89.2071124,9.39314045 L87.2781461,8.77049438 C88.0252416,7.27789888 89.8604719,6.15785393 92.5353371,6.15785393 C95.9565,6.15785393 97.1694831,7.55791011 97.1694831,10.1083258 L97.1694831,19.8441011 L95.3960787,19.8441011 L95.3960787,18.0395843 C94.5875562,19.2836798 93.4379944,19.9677528 91.2597303,19.9677528 C87.8385674,19.9677528 87.0918708,17.8840225 87.0918708,15.862118" id="Fill-12"></path>
                    <path d="M98.0813146,13.4987753 L98.0813146,12.7209663 C98.0813146,8.89494382 99.4817697,6.15785393 103.52518,6.15785393 C106.480056,6.15785393 108.189242,7.61973596 108.625612,10.7301742 L106.728556,11.0724101 C106.480056,9.1438427 105.702247,7.89974719 103.494466,7.89974719 C100.53959,7.89974719 99.9165449,9.89014045 99.9165449,12.6894551 L99.9165449,13.4361517 C99.9165449,16.1736404 100.75618,18.2569719 103.494466,18.2569719 C105.733758,18.2569719 106.572596,17.0443876 106.821096,15.2402697 L108.656725,15.4891685 C107.972253,18.537382 106.231157,19.9677528 103.431843,19.9677528 C99.5431966,19.9677528 98.0813146,17.3862247 98.0813146,13.4987753" id="Fill-13"></path>
                    <path d="M108.372326,6.37564045 L111.17164,6.37564045 L111.17164,2.27000562 L112.976157,2.27000562 L112.976157,6.37564045 L118.767045,6.37564045 L118.767045,8.11713483 L112.976157,8.11713483 L112.976157,15.3020955 C112.976157,17.5421854 113.256567,18.1329213 115.589994,18.1329213 L116.522567,18.1329213 L116.522567,19.8441011 L115.246163,19.8441011 C112.011275,19.8441011 111.17164,18.6925449 111.17164,15.5194831 L111.17164,8.11713483 L108.372326,8.11713483 L108.372326,6.37564045" id="Fill-14"></path>
                    <path d="M118.465893,19.8441011 L120.268815,19.8441011 L120.268815,6.37524157 L118.465893,6.37524157 L118.465893,19.8441011 Z M118.40327,3.94927528 L120.331039,3.94927528 L120.331039,2.17028652 L118.40327,2.17028652 L118.40327,3.94927528 Z" id="Fill-15"></path>
                    <polyline id="Fill-16" points="127.325736 19.9677528 125.460191 19.9677528 120.950494 6.37524157 122.816837 6.37524157 123.998708 9.95196629 126.423876 17.4488483 128.912865 9.95196629 130.094337 6.37524157 131.898455 6.37524157 127.325736 19.9677528"></polyline>
                    <path d="M133.229904,11.8809326 L140.135253,11.8809326 C140.07223,9.26869101 139.388556,7.86903371 136.837742,7.86903371 C134.25741,7.86903371 133.385067,9.51758989 133.229904,11.8809326 M131.342421,13.4987753 L131.342421,12.7209663 C131.342421,8.8953427 132.711764,6.15785393 136.754775,6.15785393 C140.829298,6.15785393 141.886719,8.64644382 141.886719,12.1920562 L141.886719,13.5602022 L133.146539,13.5602022 C133.146539,16.2354663 134.049596,18.2569719 136.754775,18.2569719 C138.901129,18.2569719 139.710051,17.4488483 140.020775,15.9861685 L141.824893,16.4221404 C141.295983,18.4440449 139.710051,19.9677528 136.754775,19.9677528 C132.680652,19.9677528 131.342421,17.2318596 131.342421,13.4987753" id="Fill-17"></path>
                </g>
            </g>
        </g>
    </g>
</svg>