<?xml version="1.0" encoding="UTF-8" standalone="no"?>
<!-- Created with Inkscape (http://www.inkscape.org/) -->

<svg
   xmlns:dc="http://purl.org/dc/elements/1.1/"
   xmlns:cc="http://creativecommons.org/ns#"
   xmlns:rdf="http://www.w3.org/1999/02/22-rdf-syntax-ns#"
   xmlns:svg="http://www.w3.org/2000/svg"
   xmlns="http://www.w3.org/2000/svg"
   xmlns:sodipodi="http://sodipodi.sourceforge.net/DTD/sodipodi-0.dtd"
   xmlns:inkscape="http://www.inkscape.org/namespaces/inkscape"
   id="svg2985"
   version="1.1"
   inkscape:version="0.48.2 r9819"
   width="200"
   height="77.560646"
   xml:space="preserve"
   sodipodi:docname="The Sun.svg"><metadata
     id="metadata2991"><rdf:RDF><cc:Work
         rdf:about=""><dc:format>image/svg+xml</dc:format><dc:type
           rdf:resource="http://purl.org/dc/dcmitype/StillImage" /><dc:title></dc:title></cc:Work></rdf:RDF></metadata><defs
     id="defs2989"><clipPath
       clipPathUnits="userSpaceOnUse"
       id="clipPath3013"><path
         d="m 0,0 595.276,0 0,841.89 L 0,841.89 0,0 z"
         id="path3015"
         inkscape:connector-curvature="0" /></clipPath><clipPath
       clipPathUnits="userSpaceOnUse"
       id="clipPath3049"><path
         d="m 0,0 595.276,0 0,841.89 L 0,841.89 0,0 z"
         id="path3051"
         inkscape:connector-curvature="0" /></clipPath><clipPath
       clipPathUnits="userSpaceOnUse"
       id="clipPath3251"><path
         d="m 0,0 595.276,0 0,841.89 L 0,841.89 0,0 z"
         id="path3253"
         inkscape:connector-curvature="0" /></clipPath><clipPath
       clipPathUnits="userSpaceOnUse"
       id="clipPath3285"><path
         d="m 0,0 595.276,0 0,841.89 L 0,841.89 0,0 z"
         id="path3287"
         inkscape:connector-curvature="0" /></clipPath><clipPath
       clipPathUnits="userSpaceOnUse"
       id="clipPath3745"><path
         d="m 0,0 595.276,0 0,841.89 L 0,841.89 0,0 z"
         id="path3747"
         inkscape:connector-curvature="0" /></clipPath><clipPath
       clipPathUnits="userSpaceOnUse"
       id="clipPath3761"><path
         d="m 0,0 595.276,0 0,841.89 L 0,841.89 0,0 z"
         id="path3763"
         inkscape:connector-curvature="0" /></clipPath><clipPath
       clipPathUnits="userSpaceOnUse"
       id="clipPath3833"><path
         d="m 0,0 595.276,0 0,841.89 L 0,841.89 0,0 z"
         id="path3835"
         inkscape:connector-curvature="0" /></clipPath><clipPath
       clipPathUnits="userSpaceOnUse"
       id="clipPath3849"><path
         d="m 0,0 595.276,0 0,841.89 L 0,841.89 0,0 z"
         id="path3851"
         inkscape:connector-curvature="0" /></clipPath><clipPath
       clipPathUnits="userSpaceOnUse"
       id="clipPath3865"><path
         d="m 0,0 595.276,0 0,841.89 L 0,841.89 0,0 z"
         id="path3867"
         inkscape:connector-curvature="0" /></clipPath><clipPath
       clipPathUnits="userSpaceOnUse"
       id="clipPath3985"><path
         d="m 0,0 595.276,0 0,841.89 L 0,841.89 0,0 z"
         id="path3987"
         inkscape:connector-curvature="0" /></clipPath><clipPath
       clipPathUnits="userSpaceOnUse"
       id="clipPath4051"><path
         d="m 0,0 595.276,0 0,841.89 L 0,841.89 0,0 z"
         id="path4053"
         inkscape:connector-curvature="0" /></clipPath><clipPath
       clipPathUnits="userSpaceOnUse"
       id="clipPath4067"><path
         d="m 0,0 595.276,0 0,841.89 L 0,841.89 0,0 z"
         id="path4069"
         inkscape:connector-curvature="0" /></clipPath><clipPath
       clipPathUnits="userSpaceOnUse"
       id="clipPath4115"><path
         d="m 0,0 595.276,0 0,841.89 L 0,841.89 0,0 z"
         id="path4117"
         inkscape:connector-curvature="0" /></clipPath><clipPath
       clipPathUnits="userSpaceOnUse"
       id="clipPath4319"><path
         d="m 0,0 595.276,0 0,841.89 L 0,841.89 0,0 z"
         id="path4321"
         inkscape:connector-curvature="0" /></clipPath><clipPath
       clipPathUnits="userSpaceOnUse"
       id="clipPath4335"><path
         d="m 0,0 595.276,0 0,841.89 L 0,841.89 0,0 z"
         id="path4337"
         inkscape:connector-curvature="0" /></clipPath><clipPath
       clipPathUnits="userSpaceOnUse"
       id="clipPath4459"><path
         d="m 13.716,791.221 100.024,0 0,36.496 -100.024,0 0,-36.496 z"
         id="path4461"
         inkscape:connector-curvature="0" /></clipPath></defs><sodipodi:namedview
     pagecolor="#ffffff"
     bordercolor="#666666"
     borderopacity="1"
     objecttolerance="10"
     gridtolerance="10"
     guidetolerance="10"
     inkscape:pageopacity="0"
     inkscape:pageshadow="2"
     inkscape:window-width="1234"
     inkscape:window-height="1033"
     id="namedview2987"
     showgrid="false"
     fit-margin-top="0"
     fit-margin-left="0"
     fit-margin-right="0"
     fit-margin-bottom="0"
     inkscape:zoom="5.0743638"
     inkscape:cx="102.18924"
     inkscape:cy="20.224579"
     inkscape:window-x="683"
     inkscape:window-y="-15"
     inkscape:window-maximized="0"
     inkscape:current-layer="g2993" /><g
     id="g2993"
     inkscape:groupmode="layer"
     inkscape:label="Updated_July__9_50_1554326a"
     transform="matrix(1.25,0,0,-1.25,-17.145,1067.1694)"><g
       id="g4063"><g
         id="g4065"
         clip-path="url(#clipPath4067)"><g
           id="g4071"
           transform="translate(25.5356,8.4471)" /></g></g><g
       id="g4073"
       transform="translate(25.5356,8.4471)" /><g
       id="g4111"><g
         id="g4113"
         clip-path="url(#clipPath4115)"><g
           id="g4119"
           transform="translate(283.4478,8.4471)" /></g></g><g
       id="g4121"
       transform="translate(283.4478,8.4471)" /><g
       id="g4521"
       transform="matrix(1.5996161,0,0,1.5996161,-8.2243343,-474.70827)"><path
         id="path4441"
         style="fill:#ed1d24;fill-opacity:1;fill-rule:nonzero;stroke:none"
         d="m 13.716,791.687 100.024,0 0,38.78963 -100.024,0 0,-38.78963 z"
         inkscape:connector-curvature="0" /><g
         transform="translate(66.0001,819.6377)"
         id="g4443"><path
           id="path4445"
           style="fill:#ffffff;fill-opacity:1;fill-rule:nonzero;stroke:none"
           d="m 0,0 -2.438,0 1.234,4.539 -1.755,0 0.391,1.438 5.912,0 -0.39,-1.438 -1.72,0 L 0,0 z"
           inkscape:connector-curvature="0" /></g><g
         transform="translate(75.6826,819.6377)"
         id="g4447"><path
           id="path4449"
           style="fill:#ffffff;fill-opacity:1;fill-rule:nonzero;stroke:none"
           d="m 0,0 -2.561,0 0.633,2.326 -1.975,0 L -4.536,0 l -2.56,0 1.625,5.977 2.56,0 -0.599,-2.204 1.975,0 0.599,2.204 2.561,0 L 0,0 z"
           inkscape:connector-curvature="0" /></g><g
         transform="translate(83.035,819.6377)"
         id="g4451"><path
           id="path4453"
           style="fill:#ffffff;fill-opacity:1;fill-rule:nonzero;stroke:none"
           d="m 0,0 -6.279,0 1.625,5.977 6.279,0 -0.374,-1.377 -3.767,0 -0.238,-0.871 3.049,0 -0.362,-1.333 -3.049,0 -0.263,-0.967 3.768,0 L 0,0 z"
           inkscape:connector-curvature="0" /></g><g
         id="g4455"><g
           clip-path="url(#clipPath4459)"
           id="g4457"><g
             transform="translate(41.4275,816.2433)"
             id="g4463"><path
               id="path4465"
               style="fill:#ffffff;fill-opacity:1;fill-rule:nonzero;stroke:none"
               d="m 0,0 c -0.723,1.976 -3.339,2.732 -5.969,2.732 -1.637,0 -3.749,-0.42 -3.777,-1.849 -0.016,-0.883 0.853,-1.262 1.841,-1.598 1.278,-0.42 2.617,-0.714 3.955,-1.051 1.454,-0.378 2.967,-0.756 4.421,-1.135 4.363,-1.092 7.875,-3.909 7.809,-7.398 -0.128,-6.726 -8.896,-9.795 -17.197,-9.795 -8.301,0 -15.161,1.976 -18.265,7.819 l 11.253,1.556 c 1.298,-2.438 3.978,-2.943 7.368,-2.943 1.754,0 4.335,0.505 4.365,2.06 0.029,1.513 -3.002,1.976 -4.456,2.354 -6.34,1.681 -13.74,2.943 -13.626,8.912 0.126,6.642 7.949,9.164 16.133,9.164 7.073,0 13.76,-1.85 16.235,-6.978 L 0,0 z"
               inkscape:connector-curvature="0" /></g><g
             transform="translate(77.7668,796.5702)"
             id="g4471"><path
               id="path4473"
               style="fill:#ffffff;fill-opacity:1;fill-rule:nonzero;stroke:none"
               d="m 0,0 -10.405,0 1.009,3.867 c -2.451,-2.858 -5.052,-4.414 -9.846,-4.414 -3.858,0 -7.682,1.808 -7.625,4.793 0.023,1.177 0.338,2.396 0.652,3.531 l 3.228,12.947 11.105,0 -3.03,-11.854 c -0.189,-0.673 -0.376,-1.345 -0.389,-2.018 -0.018,-0.925 0.613,-1.556 1.957,-1.556 3.39,0 4.564,3.321 5.009,5.171 l 2.591,10.257 10.932,0 L 0,0 z"
               inkscape:connector-curvature="0" /></g><g
             transform="translate(77.7668,796.5702)"
             id="g4475" /><g
             transform="translate(111.9645,810.7365)"
             id="g4479"><path
               id="path4481"
               style="fill:#ffffff;fill-opacity:1;fill-rule:nonzero;stroke:none"
               d="m 0,0 -3.544,-14.166 -10.931,0 3.102,12.442 c 0.126,0.547 0.313,1.135 0.323,1.682 0.024,1.219 -1.137,1.639 -2.657,1.639 -2.631,0 -3.715,-1.681 -4.155,-3.321 l -3.16,-12.442 -10.698,0 5.247,20.724 10.054,0 -0.882,-3.363 c 1.807,2.816 5.337,3.993 9.487,3.993 4.326,0 8.21,-1.723 8.146,-5.086 C 0.318,1.387 0.188,0.715 0,0"
               inkscape:connector-curvature="0" /></g></g></g></g></g></svg>