<svg xmlns="http://www.w3.org/2000/svg" viewBox="0 0 710.7 158.5"><path d="M147.4 72.7h33.9v16.1h4.8V52.5h-4.8v16h-33.9v-16h-4.8v36.3h4.8M228.6 84.5H196V72.7h27l-2-4.2h-25V56.7h19.3l-2-4.2h-22.1v36.3h39.5M114.3 56.7v32.1h4.9V56.7h18.9v-4.2H91.2l2 4.2M111.5 101.3h7.6v57.3h-7.6zM427.2 107.9h29.9v50.6h7.7v-50.6h29.9v-6.6h-67.5M502.7 107.9h30v50.6h7.6v-50.6h30v-6.6h-67.6M179 132.2c6.5-2.4 10.1-8.7 10.1-14.6v-.7c0-7.5-5.8-15.6-16-15.6h-43v57.3h7.6v-25.3h32.6l12.8 25.3h8.3l-13.3-26.1c.1 0 .6-.2.9-.3zm-41.2-5.6v-18.7H172c5.6 0 9.4 4.3 9.4 9v.7c0 4.7-3.8 9-9.4 9h-34.2zM697.3 132.5s.5-.2.8-.3c6.5-2.4 10.1-8.7 10.1-14.6v-.7c0-7.5-5.8-15.6-16-15.6h-43v57.3h7.6v-25.3h32.6l12.8 25.3h8.3l-13.2-26.1zm-40.4-5.9v-18.7h34.3c5.6 0 9.4 4.3 9.4 9v.7c0 4.7-3.8 9-9.4 9h-34.3zM411.2 142.9c0 4.7-3.8 9-9.4 9h-35.6c-5.6 0-9.4-4.3-9.4-9v-41.6h-7.6v41.6c0 7.5 5.7 15.5 15.7 15.6h38.3c10-.1 15.7-8.2 15.7-15.6v-41.6h-7.6v41.6zM323.5 101.3h-38.3c-10 .1-15.7 8.2-15.7 15.6v26c0 7.5 5.7 15.5 15.7 15.6h38.3c10-.1 15.7-8.2 15.7-15.6v-.7h-7.6v.7c0 4.7-3.8 9-9.4 9h-35.6c-5.6 0-9.4-4.3-9.4-9v-26c0-4.7 3.8-9 9.4-9h35.6c5.6 0 9.4 4.3 9.4 9v.7h7.6v-.7c-.1-7.5-5.8-15.5-15.7-15.6zM73.5 144.3l-20.5-43h-3.2l-20.6 43-20.6-43H0l27.4 57.2H31l20.4-42.4 20.3 42.4h3.7l27.4-57.2h-8.7M585.1 151.9v-18.7h43.1l-3.2-6.6h-39.9v-18.7h31l-3.2-6.6h-35.4v57.2h62.8l-3.2-6.6M208.8 151.9v-18.7h43.1l-3.1-6.6h-40v-18.7h31l-3.2-6.6h-35.4v57.2h62.9l-3.2-6.6"/><g fill="#FFC82B"><path d="M400.8 0l-37.5 34.7 5.9 12.2L405.9 13h289.9l6.3-13M343.9 52.5H221.7l6.3 13h121l7.6-6.9-5.9-12.3"/></g><g fill="#00727C"><path d="M381.1 75.8l-1.5-3.2-10 9.2 3.3 7h277.4l6.3-13M358.9 29.3H80l6.3 13h264.4l11.5 24 10-9.2"/></g><path fill="#E44D34" d="M582.5 37.9h-187l-41 37.9H232.9l6.2 13h120.5l41-37.9h188.2"/></svg>